<?xml version="1.0" encoding="utf-8"?>
<!-- Generator: Adobe Illustrator 27.5.0, SVG Export Plug-In . SVG Version: 6.00 Build 0)  -->
<svg version="1.1" id="Capa_1" xmlns="http://www.w3.org/2000/svg" xmlns:xlink="http://www.w3.org/1999/xlink" x="0px" y="0px"
	 viewBox="0 0 2122 2122" style="enable-background:new 0 0 2122 2122;" xml:space="preserve">
<g>
	
		<ellipse transform="matrix(0.7071 -0.7071 0.7071 0.7071 -444.7008 1047.718)" style="fill:#F7A531;" cx="1042.357" cy="1060.66" rx="764.205" ry="764.206"/>
	
		<ellipse transform="matrix(0.7071 -0.7071 0.7071 0.7071 -444.7008 1047.7179)" style="fill:#F39119;" cx="1042.357" cy="1060.66" rx="604.79" ry="604.79"/>
	<path style="fill:#ED6F17;" d="M437.567,1060.66c0-334.016,270.774-604.79,604.79-604.79c35.753,0,70.773,3.126,104.823,9.076
		c-45.487-10.93-92.96-16.76-141.8-16.76c-334.016,0-604.79,270.774-604.79,604.79c0,298.263,215.917,546.075,499.967,595.714
		C634.96,1584.871,437.567,1345.836,437.567,1060.66z"/>
	<path style="fill:#FCC443;" d="M1096.042,650.143l96.896,196.333c8.72,17.67,25.577,29.916,45.076,32.75l216.666,31.483
		c49.105,7.135,68.711,67.48,33.179,102.115l-156.781,152.824c-14.11,13.754-20.549,33.57-17.218,52.991l37.011,215.791
		c8.387,48.906-42.944,86.201-86.865,63.111l-193.792-101.883c-17.441-9.169-38.277-9.169-55.718,0L820.706,1497.54
		c-43.92,23.09-95.252-14.205-86.864-63.111l37.011-215.791c3.331-19.421-3.108-39.237-17.218-52.991l-156.781-152.824
		c-35.532-34.635-15.925-94.98,33.179-102.115L846.7,879.226c19.499-2.834,36.355-15.08,45.076-32.75l96.896-196.333
		C1010.632,605.647,1074.082,605.647,1096.042,650.143z"/>
	<path style="fill:#FFDE7A;" d="M1336.199,1348.876c-5.993-3.842-12.026-7.619-17.966-11.543
		c-87.327-57.687-168.955-124.236-241.86-199.383c-76.26-78.607-143.774-166.058-193.547-263.875
		c-1.62-3.184-3.174-6.397-4.762-9.595c-8.666,7.783-19.511,13.023-31.364,14.746l-216.667,31.483
		c-49.104,7.135-68.711,67.48-33.179,102.115l156.781,152.824c14.109,13.754,20.548,33.57,17.218,52.991l-37.011,215.791
		c-8.388,48.906,42.944,86.2,86.864,63.111l193.792-101.883c17.441-9.169,38.276-9.169,55.718,0l193.792,101.883
		c43.921,23.09,95.253-14.205,86.865-63.111L1336.199,1348.876z"/>
	<path style="fill:#ED6F17;" d="M278.151,1060.66c0-420.109,339.004-760.989,758.371-764.132v-0.074H903.562
		c-422.059,0-764.206,342.146-764.206,764.206c0,422.059,342.147,764.205,764.206,764.205h132.961v-0.074
		C617.155,1821.649,278.151,1480.769,278.151,1060.66z"/>
	<g>
		<path style="fill:#C44A13;" d="M315.001,573.209c47.048-1.292,94.104-2.223,141.165-2.763
			c10.088-12.047,20.501-23.813,31.3-35.213c-46.959,0.372-93.913,1.101-140.86,2.222
			C335.714,549.045,325.161,560.956,315.001,573.209z"/>
		<path style="fill:#C44A13;" d="M346.732,743.904c5.421-11.885,11.148-23.6,17.151-35.149c-46.76,0.537-93.514,1.463-140.26,2.742
			c-5.981,11.625-11.68,23.419-17.073,35.381C253.269,745.509,299.998,744.532,346.732,743.904z"/>
		<path style="fill:#C44A13;" d="M291.747,916.725c2.242-11.762,4.75-23.429,7.525-34.993c-46.455,0.389-92.905,1.128-139.348,2.249
			c-2.747,11.606-5.217,23.315-7.428,35.119C198.906,917.94,245.324,917.153,291.747,916.725z"/>
		<path style="fill:#C44A13;" d="M278.749,1089.555c-0.357-9.592-0.598-19.215-0.598-28.895c0-2.016,0.06-4.018,0.076-6.03
			c-46.274,0.016-92.544,0.415-138.809,1.157c-0.01,1.626-0.062,3.243-0.062,4.872c0,10.066,0.256,20.07,0.642,30.042
			C186.243,1089.964,232.494,1089.568,278.749,1089.555z"/>
		<path style="fill:#C44A13;" d="M295.804,1224.443c-46.122,0.319-92.239,1.006-138.349,2.047
			c2.586,11.686,5.441,23.268,8.556,34.747c46.087-0.996,92.18-1.651,138.278-1.926
			C301.194,1247.794,298.365,1236.17,295.804,1224.443z"/>
		<path style="fill:#C44A13;" d="M356.436,1397.838c-45.896,0.409-91.788,1.161-137.672,2.285
			c5.797,11.671,11.879,23.172,18.246,34.495c45.884-1.029,91.776-1.712,137.672-2.025
			C368.312,1421.184,362.228,1409.597,356.436,1397.838z"/>
		<path style="fill:#C44A13;" d="M451.344,1545.136c-45.47,0.631-90.935,1.587-136.39,2.92
			c9.683,11.681,19.732,23.043,30.081,34.123c45.497-1.179,91.001-2.013,136.51-2.489
			C471.153,1568.467,461.056,1556.967,451.344,1545.136z"/>
		<path style="fill:#C44A13;" d="M598.841,1683.005c-44.752,0.74-89.496,1.83-134.233,3.25
			c16.816,11.821,34.137,22.967,51.911,33.428c44.899-1.161,89.806-1.987,134.717-2.463
			C633.288,1706.507,615.798,1695.109,598.841,1683.005z"/>
	</g>
	<path style="fill:#FFDC7C;" d="M2043.704,961.058c-64.726,12.197-89.475,36.946-101.672,101.672
		c-2.497,13.249-21.364,13.249-23.86,0c-12.198-64.726-36.946-89.475-101.672-101.672c-13.249-2.497-13.249-21.364,0-23.86
		c64.726-12.198,89.475-36.946,101.672-101.672c2.496-13.249,21.363-13.249,23.86,0c12.197,64.726,36.946,89.474,101.672,101.672
		C2056.952,939.694,2056.952,958.561,2043.704,961.058z"/>
	<path style="fill:#FFDC7C;" d="M1748.116,1190.253c-31.131,5.867-43.035,17.77-48.902,48.901c-1.201,6.372-10.275,6.372-11.476,0
		c-5.867-31.132-17.77-43.035-48.901-48.901c-6.372-1.201-6.372-10.275,0-11.476c31.132-5.867,43.035-17.77,48.901-48.901
		c1.201-6.373,10.275-6.373,11.476,0c5.867,31.131,17.77,43.035,48.902,48.901
		C1754.488,1179.978,1754.488,1189.052,1748.116,1190.253z"/>
	<path style="fill:#FFDC7C;" d="M1970.561,1230.371c-32.162,6.061-44.46,18.359-50.52,50.52c-1.241,6.584-10.616,6.584-11.856,0
		c-6.061-32.162-18.359-44.459-50.521-50.52c-6.583-1.24-6.583-10.615,0-11.856c32.162-6.061,44.459-18.358,50.521-50.52
		c1.24-6.583,10.615-6.583,11.856,0c6.061,32.162,18.358,44.46,50.52,50.52C1977.144,1219.756,1977.144,1229.131,1970.561,1230.371z
		"/>
	<path style="fill:#E15318;" d="M733.842,1434.429l37.011-215.791c3.331-19.421-3.108-39.237-17.218-52.991l-156.781-152.824
		c-35.532-34.635-15.925-94.98,33.179-102.115L846.7,879.226c19.499-2.834,36.355-15.08,45.076-32.75l96.896-196.333
		c10.013-20.288,28.659-31.217,48.057-33.005h-50.684c-23.145-2.131-47.365,8.798-59.312,33.005l-96.896,196.333
		c-8.72,17.67-25.577,29.916-45.076,32.75l-216.667,31.483c-49.104,7.135-68.711,67.48-33.179,102.115l156.781,152.824
		c14.109,13.754,20.548,33.57,17.218,52.991l-37.011,215.791c-5.993,34.942,18.499,63.957,48.993,69.255h62.021
		C752.387,1498.422,727.844,1469.401,733.842,1434.429z"/>
	<path style="fill:#FFFFFF;" d="M1494.791,607.661c10.39,9.054,20.531,18.397,30.387,28.06
		c10.193,9.993,22.052,19.473,36.182,21.503c31.366,4.506,40.796-29.703,30.634-53.388c-21.607-50.364-66.362-86.85-107.759-120.788
		c-52.438-42.989-227.024-154.098-257.857-97.988c-16.273,29.614,11.796,57.108,37.238,70.809
		C1344.579,499.47,1425.265,547.08,1494.791,607.661z"/>
	<path style="fill:#FFFFFF;" d="M1608.293,761.03c6.836,7.071,14.191,13.088,21.073,17.489c18.9,12.084,44.408,9.487,53.889-12.914
		c4.234-10.003,4.265-21.343,2.456-32.053c-6.259-37.051-62.722-102.528-97.407-50.561
		C1571.48,708.202,1587.483,739.503,1608.293,761.03z"/>
</g>
</svg>
